<?xml version="1.0" encoding="UTF-8" standalone="no"?>
<!-- Created with Inkscape (http://www.inkscape.org/) -->

<svg
   width="185.20834mm"
   height="185.20833mm"
   viewBox="0 0 185.20834 185.20833"
   version="1.1"
   id="svg1"
   inkscape:version="1.3.2 (091e20e, 2023-11-25, custom)"
   sodipodi:docname="logoAlpha.svg"
   inkscape:export-filename="logoAlpha512.png"
   inkscape:export-xdpi="75.609329"
   inkscape:export-ydpi="75.609329"
   xmlns:inkscape="http://www.inkscape.org/namespaces/inkscape"
   xmlns:sodipodi="http://sodipodi.sourceforge.net/DTD/sodipodi-0.dtd"
   xmlns="http://www.w3.org/2000/svg"
   xmlns:svg="http://www.w3.org/2000/svg">
  <sodipodi:namedview
     id="namedview1"
     pagecolor="#ffffff"
     bordercolor="#000000"
     borderopacity="0.25"
     inkscape:showpageshadow="2"
     inkscape:pageopacity="0.0"
     inkscape:pagecheckerboard="false"
     inkscape:deskcolor="#d1d1d1"
     inkscape:document-units="mm"
     inkscape:zoom="1"
     inkscape:cx="351.5"
     inkscape:cy="302.5"
     inkscape:window-width="1920"
     inkscape:window-height="991"
     inkscape:window-x="-9"
     inkscape:window-y="-9"
     inkscape:window-maximized="1"
     inkscape:current-layer="layer1"
     showborder="false" />
  <defs
     id="defs1" />
  <g
     inkscape:label="Warstwa 1"
     inkscape:groupmode="layer"
     id="layer1"
     transform="translate(-11.443621,-37.784298)">
    <path
       style="fill:#000000;stroke:#000000;stroke-width:1.89646;stroke-linecap:round;stroke-linejoin:bevel;stroke-dasharray:none;stroke-dashoffset:0;stroke-opacity:1;paint-order:stroke fill markers"
       d="m 104.34604,214.92732 c -0.34387,-0.12418 -1.39765,-1.07344 -2.34164,-2.10947 -1.83121,-2.00957 -2.973049,-3.09366 -8.525707,-8.09459 -12.087175,-10.88611 -18.904721,-17.4975 -24.193624,-23.46204 -3.560112,-4.0149 -11.664373,-12.76444 -14.586246,-15.74764 -1.548591,-1.5811 -3.296453,-3.44392 -3.884122,-4.1396 -0.587683,-0.69568 -2.400417,-2.455 -4.02832,-3.90961 -1.627899,-1.45461 -3.37267,-3.25634 -3.877269,-4.00386 l -0.917443,-1.35909 0.0012,-1.05566 0.0012,-1.05566 0.595471,-0.73283 c 0.893798,-1.10001 4.499024,-2.88965 9.975472,-4.95185 8.250083,-3.10664 9.202729,-4.40406 4.137347,-5.63467 l -1.685545,-0.40951 -0.351768,-0.8088 c -0.44467,-1.0224 -0.880012,-3.76114 -1.479918,-9.31021 -0.5167,-4.7795 -0.675305,-5.5926 -1.18277,-6.06411 l -0.338602,-0.31466 0.82595,-0.49025 c 0.454275,-0.26964 1.622458,-0.79509 2.595985,-1.16765 2.19449,-0.83981 10.462322,-4.97676 11.247662,-5.62795 0.317711,-0.26345 0.728663,-0.47654 0.913243,-0.47358 0.38959,0.007 3.488168,7.05141 4.636322,10.54142 0.431119,1.31045 1.38726,3.79421 2.124772,5.51945 1.736992,4.06339 2.726478,6.58179 3.536628,9.00125 0.36,1.07516 0.979979,2.67926 1.37772,3.56466 0.397732,0.88542 1.369867,3.1622 2.16029,5.0595 0.790411,1.89732 2.512885,5.98518 3.827702,9.08413 1.31482,3.09893 2.801976,6.66934 3.3048,7.93421 1.875713,4.7185 4.423591,10.84656 4.972159,11.95884 0.311904,0.63243 0.984591,2.23653 1.494864,3.56464 0.510273,1.32812 1.551218,3.96712 2.31321,5.86442 0.761994,1.89733 2.356652,6.1918 3.543727,9.54328 2.26542,6.39672 4.2374,11.2697 4.56043,11.2697 0.10514,0 0.51421,-0.80205 0.909,-1.78233 2.58072,-6.40751 3.14309,-7.85281 4.13888,-10.63646 0.61069,-1.70758 1.80789,-4.86402 2.66025,-7.01431 0.85234,-2.1503 2.1544,-5.46197 2.89332,-7.35928 0.7389,-1.89732 1.68204,-4.07059 2.09567,-4.82953 0.41374,-0.75893 1.0637,-2.15604 1.4444,-3.1047 0.3807,-0.94866 1.22247,-2.80135 1.8705,-4.11709 0.64802,-1.31577 1.94778,-4.36872 2.88821,-6.78435 0.94044,-2.41563 2.09845,-5.27172 2.57333,-6.34688 1.88693,-4.27208 4.00488,-9.60411 5.66349,-14.25859 2.50336,-7.02479 3.25295,-8.97341 3.81411,-9.91506 0.34781,-0.58351 0.92317,-1.98059 1.27855,-3.10468 0.9298,-2.94007 2.58722,-6.95345 3.87214,-9.37659 l 1.11161,-2.09629 0.0502,-1.03488 0.0503,-1.03491 0.78236,0.0399 c 0.43035,0.0218 2.13191,0.74633 3.78129,1.60984 1.64938,0.86351 4.93999,2.29446 7.31257,3.17987 l 4.31362,1.60985 -0.048,0.34494 c -0.0265,0.18975 -0.27449,1.17291 -0.55083,2.18481 -0.27633,1.01189 -0.63498,3.18519 -0.79705,4.82952 -0.33158,3.36617 -0.63052,4.85696 -1.55717,7.76614 l -0.64241,2.01669 -0.83912,0.62804 c -0.46146,0.34543 -1.39177,0.90157 -2.06749,1.23587 l -1.22848,0.60781 -0.16371,0.64249 c -0.28983,1.13775 0.63779,1.68893 5.3858,3.20032 3.01966,0.96122 10.36922,4.18911 11.54978,5.07258 l 0.76617,0.57339 v 1.20215 1.20216 l -0.83369,1.2649 c -0.45852,0.69567 -1.57944,1.99606 -2.49093,2.88974 -0.91137,0.89368 -2.99736,3.22222 -4.6354,5.17449 -1.63812,1.9523 -3.6202,4.1052 -4.40471,4.78426 -2.314,2.00285 -3.52831,3.24037 -5.34614,5.44876 -0.94357,1.14609 -2.84355,3.21589 -4.2222,4.59954 -1.37865,1.38363 -3.31484,3.39536 -4.30262,4.47051 -2.91686,3.17492 -3.64046,3.91787 -5.93521,6.0944 -1.20012,1.13839 -2.99337,2.94948 -3.98481,4.02462 -0.99144,1.07513 -2.57108,2.66729 -3.51022,3.53808 -0.93913,0.8708 -2.52567,2.37141 -3.52539,3.33468 -0.99983,0.96327 -2.8617,2.6929 -4.13743,3.84363 -1.27573,1.15071 -3.02986,2.7548 -3.89804,3.56463 -0.86823,0.80985 -2.96402,2.76606 -4.65741,4.34716 -5.53872,5.1716 -6.76976,5.99743 -8.18049,5.48803 z m 3.47231,-2.21085 c 1.17166,-0.98028 3.78655,-3.33469 5.8107,-5.232 7.31161,-6.85345 11.79662,-11.04781 12.29562,-11.49888 2.01784,-1.82383 4.20017,-3.96844 5.73366,-5.63445 0.9896,-1.07513 1.90708,-1.98951 2.03883,-2.03194 0.13173,-0.0423 0.16144,-0.17179 0.0657,-0.28748 -0.0953,-0.11567 -0.0306,-0.21032 0.14315,-0.21032 0.1741,0 1.20937,-0.90554 2.30081,-2.01232 1.09134,-1.10676 2.74987,-2.75193 3.68566,-3.65593 0.93586,-0.904 1.7015,-1.70712 1.7015,-1.78468 0,-0.21981 2.31827,-2.64123 6.07518,-6.34574 0.32069,-0.31621 1.13155,-1.24762 1.80182,-2.06979 l 1.21878,-1.49484 -1.86628,0.0679 c -1.02641,0.0373 -4.74228,-0.0169 -8.25731,-0.1206 l -6.39111,-0.18845 -0.88755,-0.74544 -0.88758,-0.74544 v -0.58274 c 0,-0.76239 0.77206,-1.86441 1.51537,-2.16292 1.22762,-0.49303 12.77357,0.0215 14.30761,0.63755 1.34107,0.53858 2.8765,2.57532 1.94149,2.57532 h -0.31731 l 0.32814,0.45996 c 0.49369,0.69226 0.67525,0.59989 2.3742,-1.20738 0.86212,-0.91704 2.19634,-2.18479 2.96514,-2.81723 0.76869,-0.63244 2.11071,-2.02956 2.98223,-3.10469 2.33435,-2.87976 4.18876,-4.97329 6.00941,-6.78435 0.89018,-0.88542 1.96022,-2.12172 2.37809,-2.7474 l 0.75974,-1.13755 v -0.88987 c 0,-1.33097 -0.35969,-1.63979 -3.29108,-2.82567 -1.47687,-0.59743 -3.13336,-1.33616 -3.68118,-1.64162 -1.44463,-0.80548 -4.64089,-1.95414 -4.98871,-1.79282 -0.16382,0.0761 -0.29789,0.0224 -0.29789,-0.11897 0,-0.14143 -0.13789,-0.19316 -0.30648,-0.115 -0.16856,0.0782 -0.30646,0.0438 -0.30646,-0.0767 0,-0.12022 -0.32021,-0.27891 -0.71152,-0.35262 -0.39135,-0.0736 -1.49467,-0.521 -2.45176,-0.994 l -1.74023,-0.86001 v -0.85575 c 0,-0.47069 0.12308,-1.09876 0.27357,-1.39572 l 0.27355,-0.53991 1.59909,-0.65313 1.59912,-0.6531 0.5977,-1.01397 c 0.86627,-1.46956 1.72575,-5.0834 2.25263,-9.47129 0.2531,-2.10758 0.58577,-4.23263 0.73926,-4.72231 0.15349,-0.48966 0.20609,-1.03299 0.11693,-1.20736 -0.0891,-0.17439 -0.0101,-0.31707 0.17709,-0.31707 1.07819,0 -0.10661,-0.63027 -3.44123,-1.83065 -2.07928,-0.74851 -5.34525,-2.14188 -7.25776,-3.09635 -1.91242,-0.95451 -3.50931,-1.71116 -3.54855,-1.68142 -0.039,0.0298 -0.13205,0.51975 -0.20619,1.08895 -0.0735,0.5692 -0.43288,1.53915 -0.7974,2.15543 -0.95323,1.61142 -2.60052,5.51238 -3.88289,9.19497 -0.61024,1.7524 -1.36475,3.63311 -1.67675,4.17938 -0.52449,0.91815 -2.07,4.99584 -3.85941,10.18274 -1.14617,3.3221 -2.23108,5.99596 -9.44377,23.2727 -0.76569,1.83406 -2.30259,5.30098 -3.41518,7.70423 -1.11266,2.40327 -2.63613,5.87019 -3.38552,7.70425 -2.65324,6.49374 -5.72621,14.40682 -6.56416,16.90336 -0.46696,1.39136 -0.98112,2.78847 -1.14237,3.1047 -0.16135,0.31621 -0.23267,0.70428 -0.15845,0.86239 0.0736,0.15811 -0.0102,0.28747 -0.18773,0.28747 -0.17728,0 -0.24297,0.15524 -0.14591,0.34497 0.0971,0.18973 0.0362,0.34497 -0.1342,0.34497 -0.17079,0 -0.23283,0.22318 -0.13772,0.49592 l 0.1728,0.49591 -0.40682,-0.18866 -0.40685,-0.18869 0.21572,0.42181 c 0.11864,0.23198 0.10654,0.48182 -0.0268,0.55517 -0.13325,0.0734 -0.62926,1.03893 -1.10194,2.14568 l -0.85955,2.0123 h -0.56066 -0.56069 l -0.54544,-0.97741 c -0.30005,-0.53756 -0.51577,-1.10675 -0.47953,-1.26487 0.036,-0.15809 -0.0929,-0.28745 -0.28678,-0.28745 -0.19394,0 -0.2733,-0.15524 -0.17625,-0.34499 0.0969,-0.18972 0.0468,-0.34497 -0.11089,-0.34497 -0.15795,0 -0.20783,-0.15523 -0.11077,-0.34496 l 0.17637,-0.34495 h -0.37207 -0.37205 l 0.17647,-0.34497 c 0.0969,-0.18975 0.0278,-0.34497 -0.15324,-0.34497 -0.18134,0 -0.25543,-0.14511 -0.16475,-0.32248 0.0907,-0.17738 0.0705,-0.39297 -0.0435,-0.47912 -0.11471,-0.0861 -0.22593,-0.25151 -0.247,-0.36746 -0.0208,-0.11595 -0.0643,-0.23669 -0.0973,-0.2683 -0.0323,-0.0317 -0.11567,-0.38116 -0.18487,-0.77675 -0.0687,-0.39558 -0.28541,-1.01653 -0.48034,-1.37987 -0.19491,-0.36333 -0.39205,-0.86981 -0.43803,-1.12548 -0.4471,-2.48842 -8.732758,-23.4396 -9.418658,-23.81615 -0.133617,-0.0734 -0.154558,-0.30621 -0.04657,-0.51743 0.108023,-0.21126 0.06674,-0.38409 -0.09178,-0.38409 -0.158499,0 -0.29189,-0.12936 -0.29642,-0.28747 -0.0046,-0.15812 -0.664328,-1.89156 -1.466205,-3.85212 -0.80189,-1.96056 -1.857937,-4.59954 -2.346797,-5.86443 -0.48885,-1.26486 -1.835726,-4.47305 -2.993047,-7.1293 -3.054213,-7.00986 -6.862586,-16.26617 -8.326634,-20.238 -0.699369,-1.89732 -1.884097,-4.89145 -2.632733,-6.65363 -0.748635,-1.76217 -1.632102,-4.09069 -1.963242,-5.17449 -0.331151,-1.0838 -1.379475,-3.70109 -2.329625,-5.81624 l -1.727525,-3.8457 -0.795961,0.46226 c -2.114457,1.22798 -9.013249,4.60449 -11.007033,5.38723 l -2.242853,0.88052 0.179554,0.5368 c 0.09875,0.29526 0.376747,2.27091 0.617778,4.39034 0.823838,7.24433 1.115804,9.24117 1.494782,10.22342 l 0.379161,0.98272 1.81733,0.46328 1.817343,0.46327 0.698837,0.78144 c 0.815835,0.91224 0.896202,1.82274 0.216421,2.45177 -0.265336,0.24553 -0.392789,0.31424 -0.283236,0.15269 0.109557,-0.16154 -0.652486,0.11935 -1.693428,0.62421 -1.04095,0.50489 -2.154706,0.98038 -2.475001,1.05667 -0.320311,0.0764 -0.582373,0.24133 -0.582373,0.36675 0,0.12543 -0.137911,0.1641 -0.306469,0.0859 -0.168559,-0.0782 -0.306469,-0.0326 -0.306469,0.1014 0,0.13399 -0.103436,0.21897 -0.229853,0.18889 -0.374803,-0.0891 -2.221914,0.55303 -2.221914,0.77253 0,0.11113 -0.110639,0.17618 -0.245847,0.14456 -0.368568,-0.0861 -3.4318,1.02663 -3.4318,1.2467 0,0.10488 -0.154875,0.19067 -0.344167,0.19067 -0.514876,0 -4.156017,2.00327 -4.699535,2.58556 l -0.472767,0.50648 v 1.05356 1.05356 l 0.761165,1.13754 c 0.418636,0.62566 2.077675,2.30559 3.686755,3.73313 1.609083,1.42758 3.530443,3.30365 4.269684,4.1691 0.73925,0.86544 2.507566,2.75039 3.929582,4.18878 1.422021,1.43836 3.960618,4.11583 5.641318,5.9499 1.680692,1.83406 3.866653,4.21434 4.857689,5.28949 0.991023,1.07516 2.91643,3.19667 4.278678,4.71453 4.867928,5.424 8.056788,8.55564 19.771573,19.41691 0.927072,0.85954 3.616352,3.29024 5.97618,5.40158 2.35982,2.11135 5.152932,4.78449 6.206832,5.94031 2.80791,3.07955 2.68988,3.06478 5.52787,0.69064 z m 25.427,-49.76887 c -0.18125,-0.0831 -0.53713,-0.0915 -0.79077,-0.0183 l -0.46115,0.13279 0.20793,-0.25249 0.20795,-0.25251 -0.62071,-0.14785 c -2.1918,-0.52202 -1.75396,-3.00036 0.68242,-3.86298 l 1.00208,-0.35478 10.2667,-0.064 10.2668,-0.064 0.61294,0.25423 c 1.15904,0.48076 2.04258,1.40273 2.20266,2.29857 l 0.16046,0.89742 -1.11565,0.73503 -1.11553,0.73502 -1.59831,0.0322 c -5.33295,0.10726 -19.63193,0.058 -19.90782,-0.0683 z m 20.96408,-0.62413 c 1.12696,-0.32154 1.78921,-0.90038 1.78921,-1.56386 v -0.58151 l -1.06075,-0.79604 -1.06093,-0.79605 -10.25668,0.0717 -10.2567,0.0716 -0.84094,0.4715 c -1.17469,0.65861 -1.47034,1.08664 -1.23544,1.78896 l 0.20298,0.60683 1.05573,0.40617 1.05571,0.4062 9.91653,0.0678 9.9165,0.0678 z m -4.69707,7.36249 c 0.63959,-0.31134 0.45133,-0.57834 -1.4899,-2.11289 l -0.77406,-0.61195 -1.37122,-0.1359 c -0.75411,-0.0748 -3.25316,-0.26324 -5.55336,-0.4189 l -4.18225,-0.283 -1.02783,0.21768 -1.02771,0.21767 -0.52134,0.77852 -0.5212,0.77853 0.31098,0.43606 c 0.17102,0.23984 0.69581,0.61165 1.16606,0.82622 l 0.85522,0.39015 6.86363,0.0585 c 3.77502,0.0322 7.04781,-0.0312 7.27298,-0.14069 z m -18.6309,38.08605 -1.05917,-0.28754 -0.99051,-0.97666 -0.99051,-0.97666 -0.21285,-1.06478 -0.21272,-1.06479 0.57767,-1.06326 0.57768,-1.06323 1.52391,-0.5668 1.52402,-0.5668 1.64041,0.0179 1.64051,0.0178 0.81895,0.45537 c 0.45037,0.25046 1.2671,0.89366 1.81502,1.42931 l 0.99597,0.9739 v 1.17529 1.17525 l -0.68427,0.74941 c -1.359,1.48831 -4.65592,2.26299 -6.96411,1.6364 z m 4.8177,-1.01352 c 0.46125,-0.25641 1.16016,-0.81891 1.55316,-1.24996 l 0.71448,-0.7838 -0.16359,-0.7688 c -0.50672,-2.38263 -3.58014,-3.6939 -6.75511,-2.88211 l -1.4615,0.3737 -0.58396,0.7187 c -1.12651,1.38635 -0.43456,3.61395 1.47385,4.74405 l 0.85134,0.50414 1.76633,-0.0949 1.76623,-0.0949 z m -4.79861,-1.20611 -0.95182,-0.66721 v -0.68164 c 0,-0.89241 0.97392,-1.79549 2.28712,-2.1207 l 1.05173,-0.26048 1.22328,0.52829 1.22325,0.52831 0.20202,1.10218 0.20191,1.10218 -0.36958,0.33422 c -0.39714,0.35904 -2.18638,0.79868 -3.259,0.80078 -0.36142,6.4e-4 -1.08552,-0.29897 -1.60891,-0.66593 z m -27.28377,-22.91966 c -0.52711,-0.45052 -2.18382,-2.19296 -3.681409,-3.87212 l -2.722974,-3.053 -1.745213,-1.14877 -1.745216,-1.14874 0.662189,-3.31582 c 1.399758,-7.00908 3.174272,-15.22109 4.195166,-19.41424 1.168047,-4.79761 1.821267,-7.70404 2.102777,-9.35706 0.101,-0.59281 0.50287,-1.43082 0.89302,-1.86223 l 0.70927,-0.78438 -0.98693,-0.8975 c -0.54284,-0.49362 -1.615205,-1.58893 -2.383111,-2.43404 l -1.396194,-1.53655 -2.556058,2.1948 c -1.405824,1.20714 -3.08562,2.83 -3.732863,3.60635 -0.647256,0.77634 -1.474721,1.59037 -1.838823,1.8089 l -0.662003,0.39735 -1.413951,0.005 -1.41394,0.005 -0.835415,-0.62691 c -1.160685,-0.87098 -3.047578,-3.33269 -3.956569,-5.16191 -0.419327,-0.8438 -1.387907,-2.44789 -2.152405,-3.56463 -0.764504,-1.11673 -1.482146,-2.34091 -1.594753,-2.72038 l -0.204745,-0.68992 0.327915,0.22998 c 0.460051,0.32263 3.778648,5.23703 4.658993,6.89933 0.940282,1.77545 2.481219,3.75721 3.53824,4.5504 l 0.831675,0.62412 h 0.852729 0.852718 l 0.984295,-0.78309 c 0.541359,-0.43071 1.345558,-1.24699 1.787098,-1.81398 0.86443,-1.10999 5.690175,-5.35818 6.448319,-5.67654 l 0.460545,-0.19342 1.029706,1.28272 c 0.566341,0.70549 1.648477,1.88615 2.404697,2.62366 l 1.37504,1.34094 h 1.18463 c 0.65148,0 1.89357,-0.1228 2.76013,-0.2729 l 1.57562,-0.27292 0.33661,-0.47451 c 0.18503,-0.26099 1.00166,-1.13488 1.8147,-1.94198 l 1.47815,-1.46747 -0.14901,-0.54485 c -0.0813,-0.29964 -0.22008,-0.82941 -0.30693,-1.17726 l -0.1579,-0.63243 0.62382,0.57493 c 0.34305,0.31622 1.14833,0.9889 1.78958,1.49486 0.64124,0.50595 2.25009,2.00654 3.57539,3.33467 3.15186,3.15868 4.07319,3.96165 4.96311,4.32587 l 0.73607,0.30123 1.01923,-0.25241 c 1.34179,-0.3323 1.69796,-0.65699 3.4113,-3.10982 0.79508,-1.13838 1.67635,-2.3285 1.9583,-2.64474 0.51104,-0.57321 2.15966,-3.26807 2.15966,-3.53021 0,-0.076 -0.36167,-0.0348 -0.8036,0.0911 -0.70303,0.20059 -1.59001,0.62124 -5.39001,2.55623 -1.3273,0.67586 -1.61772,0.54949 -4.44335,-1.93445 -3.85009,-3.38448 -5.50022,-4.52297 -8.23955,-5.68477 -1.33271,-0.56524 -3.21258,-1.51578 -4.17734,-2.11228 l -1.75409,-1.08379 -1.39834,-0.15736 -1.39835,-0.15736 -1.9043,1.10082 c -1.04742,0.60544 -2.042232,1.20215 -2.210788,1.32597 l -0.306477,0.22516 0.430441,-0.18426 0.430484,-0.18425 -0.23132,0.28081 c -0.127194,0.15445 -0.303171,0.22685 -0.391039,0.16091 -0.430394,-0.32296 -4.373833,2.12325 -8.360029,5.18594 -2.444101,1.87786 -4.656005,3.4139 -4.915348,3.41342 -1.431377,-0.003 -4.143002,-1.75249 -7.227973,-4.66417 -1.634042,-1.54228 -1.094548,-1.9559 0.600214,-0.46018 2.336627,2.06217 4.917756,3.95414 5.745528,4.21143 l 0.896824,0.27876 1.375219,-0.95125 c 0.756375,-0.52317 2.376215,-1.79436 3.599652,-2.82485 1.223425,-1.03048 3.120834,-2.37813 4.216464,-2.99479 1.095632,-0.61665 3.164316,-1.81539 4.597058,-2.66387 l 2.60499,-1.54268 -1.83883,-0.16818 c -1.011319,-0.0925 -4.082339,-0.38237 -6.824429,-0.64413 l -4.985623,-0.47594 -3.000252,-0.66885 c -10.405877,-2.3204 -18.013439,-6.9986 -14.740553,-9.0652 l 0.94292,-0.59537 h 1.154393 c 1.460299,0 3.378598,0.50414 8.75887,2.30185 5.391616,1.80151 9.6396,2.84549 13.178223,3.23869 l 2.758239,0.30648 5.669662,-0.002 5.66967,-0.002 6.6854,-0.85439 c 6.97515,-0.89141 8.06244,-1.11155 13.78728,-2.79117 4.16369,-1.22157 5.88466,-1.56822 7.28755,-1.46786 l 1.04805,0.0751 0.0947,0.49844 c 0.15756,0.83024 -1.44227,2.85519 -3.44058,4.35468 l -1.88751,1.41641 -2.24966,0.85014 c -1.23735,0.46757 -3.85231,1.2514 -5.81117,1.74184 l -3.56163,0.89167 -3.5244,0.24373 c -6.51851,0.45081 -9.95766,0.7246 -10.36516,0.82521 l -0.40495,0.1 1.93729,1.17204 c 1.06541,0.64459 2.62677,1.4326 3.46962,1.7511 2.67158,1.00961 4.6344,2.29016 7.59252,4.95328 1.58194,1.42418 3.09705,2.7255 3.36696,2.89184 l 0.49071,0.30242 3.27299,-1.62478 c 5.73313,-2.84603 6.23963,-2.19786 2.50404,3.20473 -3.66026,5.29378 -4.44279,5.98957 -6.71536,5.97126 -1.82935,-0.0148 -2.15016,-0.24538 -7.10585,-5.10885 -3.53904,-3.47316 -2.96725,-3.37838 -5.32148,-0.88197 -2.03565,2.15849 -2.20627,2.61014 -1.41805,3.75383 l 0.49732,0.72172 0.57519,3.46394 c 0.31625,1.90518 0.98841,4.96457 1.49353,6.79862 0.50502,1.83407 1.33029,5.14578 1.83373,7.35929 0.50355,2.21353 1.26344,5.47344 1.68863,7.24429 0.42521,1.77083 0.98491,4.11824 1.24375,5.21649 l 0.47058,1.9968 -0.46946,0.84329 c -0.25822,0.46381 -1.18414,1.42806 -2.05747,2.14278 -2.0329,1.66365 -3.98364,3.64859 -5.49752,5.59373 -1.36888,1.75874 -2.44278,2.49013 -3.65642,2.49013 h -0.84635 z m 3.30912,-0.44889 c 0.52004,-0.44441 1.15537,-1.11265 1.41191,-1.48495 0.25658,-0.37233 1.08348,-1.33923 1.83751,-2.14869 0.754,-0.80943 1.27074,-1.55489 1.14823,-1.6566 -0.12262,-0.10167 -0.0844,-0.13346 0.0835,-0.0705 0.16851,0.063 1.26962,-0.71787 2.44686,-1.73483 1.17736,-1.01698 1.93579,-1.75843 1.68567,-1.64767 l -0.45489,0.20139 0.56846,-0.4868 0.5686,-0.4868 -0.15128,-0.99009 c -0.0831,-0.54455 -0.22625,-1.30055 -0.31776,-1.68003 -0.0915,-0.37946 -0.52693,-2.24227 -0.9675,-4.13958 -0.44055,-1.89732 -0.93731,-3.63498 -1.10398,-3.86148 -0.16664,-0.22649 -0.24526,-0.48524 -0.1748,-0.57494 0.07,-0.0896 -0.27445,-1.81898 -0.76653,-3.84277 -0.49206,-2.0238 -0.89132,-3.9125 -0.88733,-4.19709 0.004,-0.2846 -0.11001,-0.51746 -0.25324,-0.51746 -0.14337,0 -0.19068,-0.27412 -0.10533,-0.60912 l 0.15514,-0.60913 -0.40302,0.1869 -0.40303,0.1869 0.19983,-0.39071 c 0.18607,-0.36385 -0.21104,-2.35329 -0.62579,-3.13441 -0.10075,-0.18973 -0.21989,-0.60369 -0.26472,-0.91991 -0.67443,-4.74712 -1.03338,-6.6848 -1.31034,-7.07314 l -0.29561,-0.41443 -1.5665,-0.0511 c -0.86151,-0.0282 -2.14869,-0.15284 -2.86032,-0.27713 l -1.29381,-0.22597 -0.65084,0.55031 -0.65084,0.5503 -0.21491,1.57331 c -0.11818,0.86529 -0.75857,3.74655 -1.422969,6.40278 -0.664452,2.65626 -1.55127,6.48536 -1.970699,8.50919 -0.41944,2.02379 -1.109236,5.28373 -1.532886,7.24428 -0.423645,1.96056 -1.004128,4.7306 -1.289968,6.15562 l -0.519707,2.59096 1.605422,1.05388 1.605432,1.05387 2.824605,3.13701 c 4.52048,5.02052 4.75588,5.16325 6.31723,3.82881 z m 4.63459,-60.04111 c 2.61259,-0.18868 5.95535,-0.43736 7.42813,-0.55261 l 2.67799,-0.20958 2.83855,-0.72631 c 7.69108,-1.968 13.70818,-5.45133 12.62055,-7.30601 -0.1241,-0.21145 -0.20264,-0.46426 -0.17478,-0.56175 0.0998,-0.34871 -2.67814,0.30809 -9.39078,2.22021 l -3.76755,1.07322 -6.49913,0.85508 -6.49916,0.85511 -7.20211,-0.005 -7.202033,-0.005 -2.265997,-0.30763 c -3.171709,-0.43058 -7.392536,-1.53781 -13.084386,-3.4324 -2.682167,-0.89281 -5.530091,-1.75434 -6.328728,-1.91458 l -1.452065,-0.29134 -0.846457,0.47381 c -3.111514,1.74161 4.590991,6.16887 14.496506,8.33233 l 3.084165,0.67361 5.190531,0.47884 c 2.854806,0.26338 5.604244,0.51871 6.109954,0.56742 1.97129,0.18987 5.71954,0.11022 10.2668,-0.21817 z m -79.135983,19.06635 -0.526299,-0.10395 -0.174974,-0.732 c -0.09623,-0.4026 -0.135226,-4.45765 -0.08664,-9.01121 l 0.08831,-8.27917 2.911471,-0.13359 2.911475,-0.13359 0.576474,0.2153 0.576482,0.2153 -0.13859,8.71978 -0.138596,8.7198 -0.284652,0.19609 c -0.323387,0.22274 -4.912722,0.48556 -5.714466,0.32724 z m 4.794973,-0.89446 0.481605,-0.36137 v -8.26278 -8.26276 l -1.455735,0.0131 c -0.800656,0.008 -1.983926,0.0849 -2.629508,0.17247 l -1.173768,0.15924 -0.160028,6.09441 c -0.08799,3.35193 -0.06375,7.15519 0.05398,8.45166 l 0.214017,2.35729 h 2.093909 2.093912 z m 146.36157,0.75439 -0.7663,-0.29013 -0.17428,-0.79886 c -0.19676,-0.90211 -0.0195,-15.23561 0.19821,-16.03487 l 0.14102,-0.51744 h 1.32794 1.32796 l 1.02849,0.52006 c 0.56562,0.28606 1.46971,0.95428 2.00914,1.48498 l 0.98077,0.9649 0.29381,1.10225 0.29375,1.1023 -0.18895,5.30032 -0.18896,5.30032 -0.56023,0.64088 c -1.06454,1.21776 -4.05269,1.85761 -5.72237,1.22529 z m 4.01541,-0.9184 1.04131,-0.52542 0.36913,-0.79696 0.36901,-0.79696 -0.0114,-5.15974 -0.0111,-5.15972 -0.46978,-0.88093 c -0.80654,-1.51273 -4.4117,-3.45767 -5.24791,-2.83122 -0.11441,0.0857 -0.24768,3.72823 -0.29619,8.09458 l -0.0883,7.93878 0.35558,0.32151 0.35555,0.32149 h 1.29626 1.29624 z m -26.30563,0.70654 -0.68398,-0.24768 -0.19235,-0.76963 c -0.10592,-0.42327 -0.0374,-2.27723 0.1515,-4.11989 0.18913,-1.84266 0.43318,-5.87969 0.54228,-8.97115 l 0.19852,-5.62087 1.10021,0.0116 c 0.60505,0.007 2.06068,0.2423 3.23463,0.52429 l 2.13438,0.51266 -0.0959,7.81241 c -0.0525,4.29685 -0.18581,8.43053 -0.29569,9.186 l -0.19959,1.37356 -0.76617,0.29038 c -0.92563,0.35079 -4.17771,0.36241 -5.12787,0.0183 z m 5.00204,-0.75107 0.33399,-0.33703 0.20239,-5.21813 c 0.11124,-2.86996 0.20239,-6.69591 0.20239,-8.50207 v -3.28393 l -0.35822,-0.16615 c -0.34811,-0.1614 -4.33935,-0.99372 -4.44483,-0.92687 -0.0457,0.0291 -0.30588,4.3613 -0.92871,15.48274 l -0.16985,3.03296 1.03536,0.23523 c 1.32659,0.3014 3.69516,0.11961 4.12748,-0.31675 z m 6.10195,0.72103 -0.61294,-0.3436 -0.0901,-8.72123 -0.0905,-8.72126 0.47798,-0.29768 0.478,-0.2977 3.13672,0.20355 3.13657,0.20357 -0.097,3.21968 c -0.053,1.77084 -0.2003,5.73089 -0.32656,8.80016 l -0.22937,5.58044 -0.37297,0.27988 c -0.20513,0.15393 -1.36834,0.31539 -2.58504,0.35882 l -2.21202,0.079 z m 3.98411,-0.35285 0.91939,-0.14732 0.0556,-0.57288 c 0.26243,-2.68385 0.72976,-16.15836 0.56492,-16.28225 -0.11654,-0.0874 -1.35028,-0.19489 -2.74151,-0.23864 l -2.52972,-0.0796 -0.20153,7.20883 c -0.11087,3.96488 -0.11676,7.77806 -0.0131,8.47375 l 0.18833,1.26488 0.48156,0.28745 c 0.50517,0.30166 1.72852,0.33367 3.27577,0.0857 z m -133.201603,0.16377 -0.499933,-0.30698 -0.231635,-7.70423 c -0.127406,-4.23736 -0.247211,-8.16446 -0.266255,-8.72692 l -0.0346,-1.02267 1.992057,-0.30725 c 1.095629,-0.16898 2.612659,-0.27797 3.371174,-0.24219 l 1.379121,0.0649 0.197846,1.37987 c 0.108819,0.75892 0.302706,4.74331 0.430852,8.85415 l 0.233004,7.47426 -0.529863,0.32959 -0.529877,0.32957 -2.505982,0.0924 -2.505979,0.0925 z m 5.326841,-0.6833 0.536321,-0.21481 v -2.46739 c 0,-7.2815 -0.649563,-14.17786 -1.354514,-14.38087 -0.664586,-0.19138 -4.462341,0.33707 -4.510081,0.62754 -0.112772,0.68621 0.102748,15.94409 0.229944,16.27962 0.245857,0.64847 3.611495,0.75139 5.09833,0.15591 z m -24.441021,0.5107 c -1.420327,-0.26637 -2.858696,-0.89556 -3.226617,-1.41141 l -0.333316,-0.46737 -0.183147,-5.26782 -0.183159,-5.26783 0.521905,-1.0255 0.521908,-1.02549 1.482828,-1.04084 1.482848,-1.04081 1.157673,-0.16299 1.157662,-0.16296 0.486297,0.22741 0.486294,0.22742 0.275416,1.27997 0.275416,1.28 -0.275416,6.56669 -0.275416,6.56673 -0.4597,0.33759 c -0.606233,0.44514 -1.774245,0.60049 -2.911476,0.38721 z m 2.33762,-0.85954 0.420621,-0.3802 v -7.38153 -7.38157 l -0.849292,-0.0733 -0.849286,-0.0733 -1.045283,0.48479 c -0.574906,0.26662 -1.468423,0.96413 -1.98557,1.55003 l -0.940271,1.06525 -0.03392,0.82297 c -0.114212,2.77011 0.139107,9.85478 0.368551,10.30764 l 0.273759,0.54033 1.304774,0.44443 c 1.608856,0.548 2.782959,0.57417 3.335925,0.0743 z m 72.441159,-28.84992 c -8.386752,-0.8978 -13.124325,-2.26369 -15.157688,-4.37003 l -0.93201,-0.9655 v -0.72438 -0.72438 l 0.819623,-0.94855 c 1.017189,-1.1772 1.844929,-1.5207 3.616089,-1.50059 l 1.382806,0.0156 1.546196,0.85171 c 2.101981,1.15788 5.324869,2.13658 8.35263,2.53642 l 2.517628,0.33251 4.75028,-0.005 c 7.8766,-0.008 10.75785,-0.48498 13.98977,-2.32064 l 1.97917,-1.12414 h 1.29791 1.29803 l 1.34964,0.51744 1.34964,0.51745 0.55693,0.82306 0.55695,0.82306 -0.1882,0.70615 c -0.62042,2.32761 -5.99893,4.38872 -14.19898,5.44115 l -2.88886,0.37078 -5.07932,-0.0282 c -2.79375,-0.0153 -5.906879,-0.11661 -6.918234,-0.22491 z m 15.222714,-0.76881 c 5.54974,-0.73956 10.47131,-2.24506 12.21717,-3.73714 l 0.90857,-0.77657 v -0.63076 c 0,-0.8864 -0.78977,-1.63094 -2.2625,-2.13279 -1.8539,-0.63176 -2.43813,-0.55178 -4.55549,0.62363 -2.41818,1.34228 -3.80957,1.79293 -6.67863,2.16287 l -2.2865,0.29483 -5.82301,4e-4 -5.822908,4.3e-4 -2.145303,-0.36864 c -1.179902,-0.20276 -2.731408,-0.52503 -3.447792,-0.71617 -0.716374,-0.19116 -1.302491,-0.2963 -1.302491,-0.23368 0,0.0627 -0.172398,0.005 -0.383084,-0.12926 -0.2107,-0.13371 -1.342005,-0.70698 -2.514013,-1.27395 L 87.837737,102.0397 H 86.813408 85.78908 l -0.767674,0.57605 c -0.422217,0.31684 -0.951772,0.90464 -1.176801,1.30624 l -0.409123,0.73017 0.295445,0.63597 c 0.31471,0.67746 2.729262,2.48265 3.381666,2.52825 0.214464,0.015 0.576155,0.009 0.80377,-0.0153 0.227616,-0.0234 0.336777,0.051 0.242595,0.16529 -0.387111,0.47003 7.13073,1.91379 12.215322,2.34589 3.29512,0.28004 10.4186,0.11086 13.69036,-0.32512 z M 57.621663,83.669741 V 71.279116 l 0.41567,-0.258874 0.415671,-0.258874 46.857376,0.05823 46.85741,0.05822 0.0785,12.438488 0.0789,12.438487 -20.91925,0.152594 c -11.50553,0.08394 -32.814061,0.152682 -47.352244,0.152786 l -26.433081,1.83e-4 z M 151.63416,83.357023 151.71306,71.4586 105.27116,71.4543 58.829254,71.45 58.695523,71.738912 c -0.07356,0.158852 -0.17304,5.541346 -0.221022,11.961052 l -0.08722,11.672188 46.583449,-0.05833 46.58356,-0.05833 z m -64.013106,5.704725 c -1.731961,-0.335149 -3.050798,-1.10089 -3.987952,-2.31547 l -0.709784,-0.91991 -0.0038,-1.265894 -0.0037,-1.265893 0.722202,-0.87688 c 0.397202,-0.482283 1.250802,-1.139384 1.896877,-1.460221 l 1.174686,-0.583339 1.835561,-0.162414 1.835568,-0.162412 1.816603,0.618801 1.816604,0.618801 0.564715,0.717379 c 0.310587,0.394557 0.681026,0.717376 0.823193,0.717376 0.142161,0 0.179134,0.09635 0.08218,0.214088 -0.09698,0.117747 -0.05231,0.271592 0.09923,0.341879 0.151557,0.07029 0.243234,0.672508 0.203733,1.338263 l -0.07181,1.210466 -0.634231,0.91991 c -0.348821,0.50595 -1.012663,1.126889 -1.475196,1.379864 -0.462537,0.252976 -0.990605,0.563446 -1.173469,0.689932 -0.182881,0.126489 -0.539365,0.239075 -0.792207,0.250192 -0.252834,0.01112 -0.942397,0.07621 -1.532356,0.144644 -0.589954,0.06843 -1.70886,0.0015 -2.486459,-0.149162 z m 4.913726,-1.126117 c 4.092791,-2.032465 2.926557,-6.049824 -2.044178,-7.041605 l -1.302492,-0.259882 -1.302502,0.260041 c -0.716372,0.143024 -1.738398,0.507447 -2.271164,0.809828 l -0.968674,0.54979 -0.527624,1.036735 -0.527621,1.036736 0.181501,0.83928 c 0.265026,1.22553 1.499936,2.476116 3.015892,3.054171 l 1.327542,0.506214 1.590523,-0.08818 1.590522,-0.08819 z m 27.44005,1.201533 c -5.85017,-1.012195 -6.2565,-7.314259 -0.56253,-8.724405 l 1.12513,-0.278644 1.84159,0.125306 1.84147,0.125307 1.22625,0.651021 c 0.67446,0.358064 1.50319,0.93133 1.84176,1.273925 l 0.61553,0.622901 0.13711,1.240684 0.13721,1.240686 -0.61075,1.036079 -0.61076,1.036076 -1.18571,0.66368 c -0.6521,0.365022 -1.25467,0.716012 -1.33898,0.779975 -0.0845,0.06396 -0.29112,0.131031 -0.45968,0.149039 -2.13891,0.228509 -2.94616,0.240295 -3.99764,0.05836 z m 4.01034,-0.868357 c 1.55991,-0.531702 2.78309,-1.610762 3.22642,-2.84627 l 0.3437,-0.957861 -0.3379,-0.846247 -0.33789,-0.846241 -1.18797,-0.805377 -1.18786,-0.805379 -1.50214,-0.241729 -1.50201,-0.241729 -1.19155,0.201661 c -1.44663,0.244837 -2.543,0.827592 -3.46095,1.839698 l -0.68949,0.760291 v 1.127297 c 0,3.009366 4.10628,4.930356 7.82764,3.661886 z M 50.525278,87.899548 c -1.64938,-0.455225 -2.68555,-1.02467 -3.186038,-1.750943 l -0.444042,-0.644361 5.04e-4,-6.393296 5.03e-4,-6.393299 0.535844,-0.798295 0.53585,-0.798296 0.694399,-0.121615 c 0.381929,-0.06689 1.657614,-0.08724 2.834859,-0.04525 l 2.14017,0.07637 v 8.367212 8.367214 l -0.592786,0.23807 c -0.742837,0.298324 -1.119602,0.282845 -2.519475,-0.103515 z m 2.204051,-0.520831 c 0.0061,-0.09485 0.04205,-3.717013 0.07978,-8.049213 l 0.06853,-7.87673 H 50.70178 48.525936 l -0.35566,0.585763 -0.355664,0.585767 v 6.553991 6.55399 l 0.76766,0.576065 c 1.20519,0.904372 4.109172,1.653903 4.147064,1.070367 z m 104.286361,0.134813 -0.32773,-0.307297 -0.0489,-7.854214 -0.0489,-7.854215 0.72879,-0.63579 0.72869,-0.635786 h 1.42369 1.42371 l 0.65924,0.440788 c 0.36251,0.242437 0.84692,0.773808 1.07656,1.180832 l 0.41734,0.740039 v 6.24713 6.247128 l -0.62446,0.758253 c -0.63674,0.773034 -2.47868,1.590082 -4.15031,1.840968 l -0.92927,0.139462 z m 3.51081,-1.152347 c 0.55196,-0.255327 1.20699,-0.759573 1.45578,-1.120538 l 0.45221,-0.656312 -0.008,-5.473385 c -0.004,-3.010363 -0.13472,-5.887348 -0.29041,-6.393299 l -0.28316,-0.919909 -0.79931,-0.51745 c -0.94395,-0.611117 -2.18043,-0.668222 -2.9629,-0.136839 l -0.56083,0.38061 v 7.630274 c 0,8.824961 -0.0803,8.630128 2.99549,7.206848 z M 59.286796,66.910717 C 62.448204,56.875541 80.577003,46.76365 98.18447,45.214364 l 3.0202,-0.265747 5.25453,0.122533 5.25455,0.122531 3.71206,0.591074 c 13.1445,2.092981 23.89586,7.397589 30.67562,15.135049 2.09899,2.395378 4.07433,5.376306 4.07433,6.148324 v 0.475027 H 104.63161 59.08756 Z m 89.823434,-0.0662 c 0.42809,-0.519775 -4.26489,-6.890614 -5.07578,-6.890614 -0.18196,0 -0.25492,-0.09208 -0.16226,-0.204642 0.72508,-0.880325 -12.74905,-9.654118 -13.96214,-9.091549 -0.14726,0.06834 -0.2678,0.01729 -0.2678,-0.113409 0,-0.339915 -1.79038,-0.989037 -2.20171,-0.798263 l -0.3448,0.15992 0.20341,-0.246977 0.20343,-0.246978 -1.15211,-0.295653 c -0.63361,-0.162608 -1.25555,-0.274441 -1.38194,-0.248513 -0.12647,0.02594 -0.22989,-0.0478 -0.22989,-0.16382 0,-0.434065 -10.28086,-2.677711 -12.56521,-2.742178 -0.25284,-0.0072 -1.563,-0.131054 -2.91157,-0.275378 l -2.45173,-0.262406 -3.21793,0.139545 c -1.76987,0.07675 -3.659839,0.134858 -4.19994,0.129126 -0.986084,-0.01048 -6.892161,0.812284 -7.752388,1.079948 -0.252843,0.07868 -0.597616,0.155988 -0.766173,0.171813 -1.036621,0.09731 -2.298536,0.427648 -2.298536,0.601683 0,0.112469 -0.206859,0.14492 -0.459703,0.07211 -0.25283,-0.0728 -0.459702,-0.01327 -0.459702,0.132286 0,0.145566 -0.172387,0.238671 -0.383086,0.206897 -0.638117,-0.09622 -2.068673,0.260266 -2.068673,0.515515 0,0.131543 -0.128822,0.179424 -0.286274,0.106404 -0.360123,-0.167019 -3.69785,1.002769 -3.69785,1.296002 0,0.119145 -0.126788,0.157823 -0.281757,0.08596 -0.154968,-0.07187 -0.483329,0.02058 -0.729688,0.205452 -0.246367,0.18487 -0.533312,0.272062 -0.637653,0.193759 -0.10434,-0.07829 -0.189725,-0.01553 -0.189725,0.139515 0,0.155034 -0.137912,0.217919 -0.306469,0.139747 -0.168558,-0.07818 -0.306468,-0.0153 -0.306468,0.139746 0,0.155033 -0.08978,0.214494 -0.199546,0.132132 -0.109757,-0.08238 -0.395806,0.02976 -0.635672,0.249143 l -0.43611,0.398887 0.199305,-0.344967 c 0.109617,-0.189731 -0.08701,-0.100654 -0.436978,0.197962 -0.349964,0.298611 -0.63629,0.459937 -0.63629,0.358503 0,-0.101434 -0.217097,0.01647 -0.482438,0.261996 -0.265336,0.245529 -0.393019,0.29118 -0.283747,0.101453 l 0.198692,-0.344968 -0.436111,0.398888 c -0.239867,0.219386 -0.51377,0.340614 -0.608684,0.269394 -0.09492,-0.07123 -0.482391,0.184972 -0.861055,0.569315 -0.37868,0.384349 -1.252776,1.035167 -1.94243,1.44627 -0.68966,0.411105 -1.053594,0.54461 -0.80874,0.296676 0.244843,-0.247934 -0.127367,-0.04686 -0.827159,0.44684 -0.69978,0.493691 -1.2449,1.011144 -1.211359,1.149887 0.03353,0.138742 -0.09454,0.230601 -0.28466,0.204131 -0.303194,-0.04222 -1.69583,1.070087 -3.632836,2.901567 l -0.607302,0.574212 0.454062,-0.178532 c 0.249743,-0.09819 0.21272,-0.03009 -0.08228,0.151349 -0.294986,0.181434 -0.536331,0.447833 -0.536331,0.591995 0,0.144167 -0.134369,0.262123 -0.298592,0.262123 -0.323206,0 -1.400059,1.384581 -1.296772,1.667336 0.03466,0.09485 -0.08306,0.172482 -0.261538,0.172482 -0.178508,0 -0.239327,0.103489 -0.135156,0.229978 0.104183,0.126487 0.03522,0.229978 -0.153236,0.229978 -0.188454,0 -0.257405,0.103488 -0.153233,0.229977 0.104175,0.126488 0.03522,0.229976 -0.153233,0.229976 -0.188459,0 -0.257406,0.103491 -0.153232,0.229977 0.10417,0.12649 0.03522,0.229976 -0.153238,0.229976 -0.188455,0 -0.257407,0.103493 -0.153232,0.22998 0.104171,0.126488 0.03522,0.229979 -0.153233,0.229979 -0.188459,0 -0.244485,0.11919 -0.124514,0.264862 0.119984,0.14568 -0.0074,0.388657 -0.283184,0.539956 -0.275732,0.151297 -0.54214,0.471941 -0.59201,0.712537 -0.04988,0.2406 -0.196579,0.564768 -0.326009,0.720374 l -0.235321,0.282925 44.432617,0.0068 44.43262,0.0068 z"
       id="path1" />
    <path
       style="fill:#000080;stroke:#000000;stroke-width:7.91055;stroke-linecap:round;stroke-linejoin:bevel;paint-order:stroke fill markers"
       d="m 344.97915,654.39332 c -4.93853,-5.00867 -18.64895,-17.94617 -30.46759,-28.75 C 261.54416,577.224 247.65257,563.52466 212.98189,525.51866 180.88572,490.33485 163.40906,471.97967 140.92601,449.84064 124.29611,433.46522 123.5,432.50389 123.5,428.79842 c 0,-3.71165 0.27559,-4.04188 6.25,-7.48908 6.9407,-4.00475 18.66856,-9.25868 23.18335,-10.38585 1.61334,-0.40279 4.08834,-1.33508 5.5,-2.07175 1.41166,-0.73668 3.14068,-1.34219 3.84227,-1.34558 0.70158,-0.003 5.5517,-2.03116 10.77803,-4.50616 5.22633,-2.475 10.08636,-4.5 10.80007,-4.5 0.71371,0 2.36609,-1.1373 3.67197,-2.52734 3.21007,-3.41696 3.09597,-8.17932 -0.31961,-13.34061 -2.3404,-3.53658 -3.61597,-4.35085 -9.72023,-6.20497 -3.86447,-1.17379 -7.40308,-2.87508 -7.86357,-3.78063 -1.03396,-2.03328 -2.46606,-11.4406 -5.19664,-34.13645 -1.15735,-9.6195 -2.27706,-17.7696 -2.48826,-18.11133 -0.2112,-0.34172 2.64149,-1.8855 6.33931,-3.43061 3.69782,-1.54511 14.21697,-6.53806 23.37588,-11.09546 l 16.65257,-8.28617 5.18841,12.08883 c 2.85362,6.64885 6.6838,16.19191 8.5115,21.20678 3.4066,9.34708 18.67928,48.30649 27.68331,70.61796 2.77448,6.875 10.17584,24.54022 16.44748,39.25604 6.27163,14.71582 16.30518,39.06969 22.29677,54.11971 5.99159,15.05001 11.82348,29.18599 12.95976,31.41328 7.06525,13.84902 29.33034,72.47855 36.15722,95.21097 1.07363,3.575 2.40168,6.65 2.95123,6.83333 0.54955,0.18334 1.00015,1.08334 1.00132,2 0.003,2.23711 5.81069,13.3477 7.79735,14.91667 0.87052,0.6875 2.98575,1.25 4.70051,1.25 1.71476,0 3.82006,-0.5625 4.67845,-1.25 1.5575,-1.24742 12.82155,-24.81687 12.82155,-26.82842 0,-2.2563 17.36905,-48.31494 27.58434,-73.14717 2.55089,-6.20093 9.30015,-21.70927 14.99836,-34.46299 18.83271,-42.15133 41.67,-97.78107 51.90256,-126.43032 3.46109,-9.69039 8.09059,-21.84039 10.28778,-27 2.19718,-5.1596 6.57197,-16.09032 9.72174,-24.29047 3.14978,-8.20015 7.70199,-18.96749 10.11604,-23.92742 2.41405,-4.95993 4.38918,-9.61321 4.38918,-10.34063 0,-1.97963 0.82967,-1.73836 12.11068,3.52181 5.71413,2.66442 15.94423,7.00863 22.73356,9.6538 l 12.34424,4.8094 -0.63844,3.0962 c -0.35114,1.70292 -1.73546,10.47874 -3.07628,19.50183 -2.58895,17.42254 -5.61798,30.10084 -8.10357,33.91827 -0.83222,1.27814 -4.30439,3.57624 -7.71594,5.1069 -4.2516,1.90757 -6.5884,3.62926 -7.42854,5.47317 -1.37316,3.01376 -1.62262,11.42259 -0.39618,13.35446 1.09852,1.73036 21.81839,10.77497 26.35032,11.50241 3.13772,0.50364 20.74964,7.88319 35.57015,14.9042 6.98796,3.31045 5.9051,5.87664 -9.21374,21.83497 -4.42908,4.675 -10.62426,11.425 -13.76707,15 -5.05657,5.75193 -5.7178,6.21228 -5.74543,4 -0.049,-3.92005 -3.48327,-8.59894 -8.44656,-11.50763 l -4.54814,-2.66538 -40.76453,0.3365 c -40.62008,0.33532 -40.78171,0.34497 -45.61224,2.72302 -8.45007,4.15993 -11.10203,12.04869 -6.0634,18.03676 1.4239,1.6922 3.19175,3.07673 3.92858,3.07673 0.73682,0 2.00539,0.66571 2.81903,1.47936 1.26842,1.26842 7.80203,1.44666 45.82143,1.25 L 545,477 l -8,7.71056 -8,7.71056 -2.26675,-2.88935 c -3.91297,-4.98775 -8.12823,-6.85582 -18.27779,-8.10018 -13.8672,-1.70016 -45.84915,-1.7774 -48.75897,-0.11777 -3.49171,1.99152 -6.18854,7.16036 -6.19275,11.86923 -0.003,3.73738 0.46863,4.57013 4.42994,7.81612 l 4.43368,3.63306 27.6095,0.59127 27.60949,0.59126 -11.79317,12.11237 c -6.48625,6.6618 -16.00143,16.7315 -21.14485,22.37711 -5.14341,5.64562 -12.98937,13.47025 -17.43545,17.38809 -4.44609,3.91783 -10.96675,10.41579 -14.49037,14.43992 C 442.46187,583.85034 356.72863,663.5 354.37616,663.5 c -0.22982,0 -4.45848,-4.09801 -9.39701,-9.10668 z"
       id="path2"
       transform="matrix(0.26458333,0,0,0.26458333,11.443621,37.784298)" />
    <path
       style="fill:#000080;stroke:#000000;stroke-width:7.91055;stroke-linecap:round;stroke-linejoin:bevel;paint-order:stroke fill markers"
       d="m 351.83974,540.86557 c -2.28815,-2.12606 -8.46162,-8.64716 -13.71883,-14.49132 -5.25721,-5.84417 -11.77602,-12.04869 -14.48623,-13.78783 -3.38954,-2.17506 -4.80215,-3.6965 -4.52557,-4.87424 0.22115,-0.9417 3.28401,-15.43718 6.80637,-32.21218 3.52235,-16.775 8.87972,-41.075 11.90525,-54 3.02554,-12.925 5.79092,-25.21115 6.1453,-27.30256 0.35437,-2.0914 1.22469,-4.02526 1.93404,-4.29747 0.70935,-0.2722 5.29702,-0.13605 10.19483,0.30256 L 365,391 l 2.16551,12.97897 c 1.19103,7.13843 2.68031,14.56343 3.30952,16.5 0.6292,1.93657 1.76546,6.22103 2.52502,9.52103 5.44119,23.64004 8.90009,37.9086 10.54502,43.5 1.05172,3.575 3.32239,12.67141 5.04593,20.21424 l 3.13371,13.71423 -3.08503,3.89517 c -1.69677,2.14234 -5.5534,5.5952 -8.5703,7.67301 -3.01689,2.07782 -6.59176,5.40359 -7.94415,7.3906 -1.35239,1.98701 -5.53382,6.92726 -9.29206,10.97832 L 356,544.73114 Z"
       id="path3"
       transform="matrix(0.26458333,0,0,0.26458333,11.443621,37.784298)" />
    <path
       style="fill:#000080;stroke:#000000;stroke-width:7.91055;stroke-linecap:round;stroke-linejoin:bevel;paint-order:stroke fill markers"
       d="M 279.79812,382.13582 C 275.7245,377.67862 267.5,365.49269 267.5,363.91414 c 0,-0.24338 1.6875,0.6531 3.75,1.99219 2.0625,1.33909 5.59776,2.97231 7.85614,3.62937 5.30092,1.54229 7.42528,0.54874 21.89386,-10.2396 16.86905,-12.57822 29.34222,-20.67653 33.62094,-21.82867 2.13348,-0.57448 3.87906,-1.42458 3.87906,-1.8891 0,-0.46452 2.70718,-2.45724 6.01596,-4.42827 5.45862,-3.25168 6.42117,-3.50799 10.38974,-2.76658 2.40558,0.44941 6.04315,1.84884 8.08349,3.10984 2.04034,1.261 9.17745,4.96943 15.86026,8.24096 12.60533,6.17087 18.61646,10.17586 29.65055,19.75508 14.72495,12.78342 16.55656,13.27347 28.02496,7.49807 3.83627,-1.93192 6.97504,-3.27695 6.97504,-2.98897 0,0.92788 -13.64052,18.94626 -15.60285,20.61051 -5.35806,4.54417 -8.1755,3.07201 -24.75273,-12.93373 -6.67943,-6.44916 -14.7117,-13.88927 -17.84948,-16.53357 l -5.70506,-4.80783 -3.07153,1.81439 c -2.82537,1.66899 -3.02442,2.13644 -2.4838,5.83308 0.5651,3.86408 0.35988,4.24303 -5.33423,9.84965 -5.80091,5.71178 -6.08071,5.85324 -13.69015,6.92102 l -7.76821,1.09006 -6.14795,-6.42102 c -3.38138,-3.53156 -7.28445,-7.81243 -8.6735,-9.51305 -5.78088,-7.07755 -10.12303,-4.96641 -30.52677,14.84203 -8.06826,7.83286 -13.91603,12.75 -15.16311,12.75 -1.17835,0 -4.08666,-2.25038 -6.93251,-5.36418 z"
       id="path4"
       transform="matrix(0.26458333,0,0,0.26458333,11.443621,37.784298)" />
    <path
       style="fill:#4d4d4d;stroke:#000000;stroke-width:7.91055;stroke-linecap:round;stroke-linejoin:bevel;paint-order:stroke fill markers"
       d="M 315.50023,313.40641 C 288.47982,310.69552 266.07336,305.05817 247.75527,296.36212 235.71759,290.64754 229.4052,284.5 235.57505,284.5 c 1.07636,0 11.0623,2.89286 22.19098,6.42859 44.84989,14.24938 52.46082,15.56234 90.23397,15.5663 26.32445,0.003 29.52595,-0.20325 53.5,-3.44267 16.65672,-2.25069 29.31475,-4.53547 36.5,-6.58825 20.45288,-5.84326 32.5,-8.81014 32.5,-8.00388 0,2.13063 -11.26419,8.91711 -22.5653,13.59522 -17.25229,7.1416 -27.90848,9.41104 -53.9347,11.48639 -29.44558,2.34802 -54.17249,2.3054 -78.49977,-0.13529 z"
       id="path5"
       transform="matrix(0.26458333,0,0,0.26458333,11.443621,37.784298)" />
    <path
       style="fill:#4d4d4d;stroke:#000000;stroke-width:7.91055;stroke-linecap:round;stroke-linejoin:bevel;paint-order:stroke fill markers"
       d="m 334,269.91493 c -1.65,-0.2354 -6.6,-0.90292 -11,-1.48339 -12.77487,-1.68532 -27.62801,-4.9078 -29.87481,-6.48151 -1.13861,-0.79752 -3.25536,-1.45003 -4.70389,-1.45003 -1.48209,0 -4.68683,-1.56768 -7.32918,-3.58527 -5.0442,-3.85153 -5.05409,-4.48315 -0.13534,-8.64249 3.01388,-2.54857 4.66719,-2.23228 14.71827,2.81568 7.56254,3.79813 11.73359,5.10245 24.23002,7.57689 14.88719,2.94785 15.43898,2.98249 40.09493,2.51725 30.26587,-0.57109 36.62514,-1.63162 51.17405,-8.53425 10.50963,-4.98623 10.5293,-4.99095 15.09119,-3.61802 2.51231,0.75609 5.25992,2.0668 6.1058,2.91268 1.38396,1.38396 1.34225,1.69141 -0.41653,3.07027 -6.20639,4.86572 -20.3082,9.61846 -37.43423,12.61648 -8.67421,1.51848 -17.2024,2.1028 -34.52028,2.36521 -12.65,0.19167 -24.35,0.1559 -26,-0.0795 z"
       id="path6"
       transform="matrix(0.26458333,0,0,0.26458333,11.443621,37.784298)" />
    <path
       style="fill:#4d4d4d;stroke:#000000;stroke-width:7.91055;stroke-linecap:round;stroke-linejoin:bevel;paint-order:stroke fill markers"
       d="m 181.5,193.66124 c 0,-10.91132 0.29656,-29.36132 0.65902,-41 L 182.81805,131.5 h 171.98027 171.98026 l -0.6306,5.25 c -0.34683,2.8875 -0.63451,21.3375 -0.63929,41 L 525.5,213.5 h -172 -172 z m 130.51316,0.46139 c 3.00319,-1.99401 6.64279,-5.41227 8.08801,-7.59615 2.33055,-3.52169 2.58405,-4.74285 2.24182,-10.79935 -0.36107,-6.39014 -0.6444,-7.09773 -4.41191,-11.01859 -8.9373,-9.30106 -27.0712,-11.54909 -39.7163,-4.92357 -3.18187,1.66717 -7.11937,4.55074 -8.75,6.40792 -2.68851,3.06205 -2.96478,4.03563 -2.96478,10.448 0,6.36829 0.30204,7.45265 3.03807,10.90717 6.29928,7.95349 14.81565,11.14202 28.23834,10.57244 8.11989,-0.34456 9.18488,-0.64362 14.23675,-3.99787 z m 120.40471,0.71311 c 6.05743,-3.11597 7.56956,-4.44422 10.10563,-8.87681 2.80017,-4.89419 2.93057,-5.59089 2.13513,-11.40729 -0.97681,-7.14256 -2.5071,-9.05497 -11.5998,-14.49628 -5.66644,-3.39095 -6.3699,-3.55536 -15.21249,-3.55536 -11.01524,0 -18.29279,2.2836 -23.09714,7.24757 -11.65786,12.0452 -5.97263,28.40654 11.7508,33.8173 1.375,0.41977 6.16627,0.8019 10.64728,0.84918 7.50263,0.0791 8.7109,-0.20398 15.27059,-3.57831 z"
       id="path7"
       transform="matrix(0.26458333,0,0,0.26458333,11.443621,37.784298)" />
    <path
       style="fill:#4d4d4d;stroke:#000000;stroke-width:7.91055;stroke-linecap:round;stroke-linejoin:bevel;paint-order:stroke fill markers"
       d="M 192.5,105.81972 C 192.5,101.7783 216.37502,74.5 219.91223,74.5 c 0.83457,0 2.01489,-0.92956 2.62292,-2.065688 0.60804,-1.136129 2.98637,-2.873904 5.28519,-3.861724 2.29881,-0.987819 6.32105,-3.43326 8.93831,-5.434312 2.61726,-2.001052 4.93817,-3.638276 5.15758,-3.638276 0.21941,0 4.73274,-2.025 10.02963,-4.5 5.29689,-2.475 10.18835,-4.5 10.86992,-4.5 0.68156,0 2.12683,-0.61874 3.21171,-1.374977 1.08488,-0.756237 4.67251,-2.15515 7.97251,-3.108694 3.3,-0.953544 6.78139,-2.134805 7.73643,-2.625023 0.95504,-0.490218 2.88199,-0.891306 4.28212,-0.891306 1.40013,0 4.21873,-0.703623 6.26357,-1.563607 7.00711,-2.946939 31.91861,-6.547012 50.21788,-7.257212 19.32802,-0.750127 36.4672,0.485838 54,3.894124 13.64168,2.651873 27.2352,5.956114 28.5,6.927632 0.55,0.422465 2.575,1.092545 4.5,1.489068 3.61291,0.744209 8.40129,2.565725 13.33104,5.071174 1.55707,0.791352 3.54508,1.438821 4.41781,1.438821 2.40583,0 17.36502,8.325202 30.25115,16.835598 12.53653,8.279513 25.56084,20.574879 32.81387,30.977342 L 514.62774,106.5 H 353.56387 C 264.97874,106.5 192.5,106.19387 192.5,105.81972 Z"
       id="path8"
       transform="matrix(0.26458333,0,0,0.26458333,11.443621,37.784298)" />
    <path
       style="fill:#4d4d4d;stroke:#000000;stroke-width:7.91055;stroke-linecap:round;stroke-linejoin:bevel;paint-order:stroke fill markers"
       d="m 556.5,155.46861 c 0,-28.56701 8.8e-4,-28.57087 5.82839,-25.55735 2.72365,1.40845 3.06949,2.15005 3.64793,7.82235 0.35145,3.44652 0.50056,13.67408 0.33135,22.72793 L 566,176.92308 l -3.39788,2.28846 C 556.32136,183.4416 556.5,184.13667 556.5,155.46861 Z"
       id="path9"
       transform="matrix(0.26458333,0,0,0.26458333,11.443621,37.784298)" />
    <path
       style="fill:#808000;stroke:#000000;stroke-width:7.91055;stroke-linecap:round;stroke-linejoin:bevel;paint-order:stroke fill markers"
       d="m 145.73181,181.51878 -4.2682,-1.93729 0.2682,-23.79074 L 142,132 l 5.25,-0.30226 5.25,-0.30226 v 26.05226 c 0,20.18685 -0.28143,26.04731 -1.25,26.0303 -0.6875,-0.0121 -3.17069,-0.89375 -5.51819,-1.95926 z"
       id="path10"
       transform="matrix(0.26458333,0,0,0.26458333,11.443621,37.784298)" />
    <path
       style="fill:#808000;stroke:#000000;stroke-width:7.91055;stroke-linecap:round;stroke-linejoin:bevel;paint-order:stroke fill markers"
       d="m 124.49634,369.3665 c -0.002,-7.90158 -0.2938,-20.70841 -0.64841,-28.45963 l -0.64476,-14.09313 5.33956,-0.63239 c 2.93676,-0.34782 5.49214,-0.47981 5.67863,-0.29332 1.59661,1.5966 5.06685,55.15709 3.66455,56.55939 -0.25447,0.25448 -3.37041,0.64783 -6.92429,0.87413 L 124.5,383.73299 Z"
       id="path11"
       transform="matrix(0.26458333,0,0,0.26458333,11.443621,37.784298)" />
    <path
       style="fill:#808000;stroke:#000000;stroke-width:7.91055;stroke-linecap:round;stroke-linejoin:bevel;paint-order:stroke fill markers"
       d="m 82.933157,377.75 c -0.646831,-6.01366 0.01386,-48.05018 0.766516,-48.76984 0.16518,-0.15793 2.887827,-0.60743 6.050327,-0.99888 l 5.75,-0.71173 V 355.88478 384.5 h -5.920406 -5.920406 z"
       id="path12"
       transform="matrix(0.26458333,0,0,0.26458333,11.443621,37.784298)" />
    <path
       style="fill:#808000;stroke:#000000;stroke-width:7.91055;stroke-linecap:round;stroke-linejoin:bevel;paint-order:stroke fill markers"
       d="m 46.400714,380.94403 -4.599286,-1.41666 -0.650714,-9.16731 c -1.220509,-17.19463 -0.797213,-29.1145 1.121522,-31.58166 2.498077,-3.21209 8.320685,-7.2784 10.422044,-7.2784 1.692601,0 1.80572,1.55942 1.80572,24.89301 0,21.77668 -0.198022,24.969 -1.581787,25.5 -0.869984,0.33384 -1.657484,0.57565 -1.75,0.53734 -0.09252,-0.0383 -2.237892,-0.70715 -4.767499,-1.48632 z"
       id="path13"
       transform="matrix(0.26458333,0,0,0.26458333,11.443621,37.784298)" />
    <path
       style="fill:#808000;stroke:#000000;stroke-width:7.91055;stroke-linecap:round;stroke-linejoin:bevel;paint-order:stroke fill markers"
       d="m 570.82831,382.91318 c -0.3349,-0.87275 0.0167,-13.02316 0.78139,-27.00091 0.7814,-14.28379 1.00417,-25.4137 0.50863,-25.41319 -0.78395,8.2e-4 -0.28908,-7.67268 0.54759,-8.49101 0.18374,-0.17972 2.75802,0.15422 5.72061,0.74209 l 5.38653,1.06885 -0.48569,29.43825 c -0.39199,23.75953 -0.7559,29.60934 -1.88652,30.32518 -2.47078,1.56435 -9.89578,1.09434 -10.57254,-0.66926 z"
       id="path14"
       transform="matrix(0.26458333,0,0,0.26458333,11.443621,37.784298)" />
    <path
       style="fill:#808000;stroke:#000000;stroke-width:7.91055;stroke-linecap:round;stroke-linejoin:bevel;paint-order:stroke fill markers"
       d="m 612.64704,356.0744 c 0.20395,-15.63408 0.64071,-28.69548 0.97057,-29.02534 0.32986,-0.32986 3.18313,-0.29612 6.34061,0.075 l 5.74085,0.67473 -0.57988,10.60062 c -0.31894,5.83034 -0.8621,18.58812 -1.20703,28.35062 l -0.62714,17.75 h -5.5044 -5.5044 z"
       id="path16"
       transform="matrix(0.26458333,0,0,0.26458333,11.443621,37.784298)" />
    <path
       style="fill:#808000;stroke:#000000;stroke-width:7.91055;stroke-linecap:round;stroke-linejoin:bevel;paint-order:stroke fill markers"
       d="m 653.76976,357.90872 c 0.31871,-14.6252 0.79478,-26.80659 1.05795,-27.06976 0.93661,-0.93661 8.46403,3.62483 11.0465,6.69392 l 2.62579,3.12057 v 18.37622 c 0,11.33772 -0.42526,19.30957 -1.11027,20.813 -1.40083,3.07449 -4.83058,4.65733 -10.09163,4.65733 h -4.1078 z"
       id="path17"
       transform="matrix(0.26458333,0,0,0.26458333,11.443621,37.784298)" />
    <path
       style="fill:#550000;stroke:#000000;stroke-width:7.91055;stroke-linecap:round;stroke-linejoin:bevel;paint-order:stroke fill markers"
       d="m 557.36538,166.75 c -0.23727,-7.5625 -0.19155,-18.92031 0.10161,-25.23957 0.57019,-12.29094 1.31531,-13.71634 5.55235,-10.62153 1.8531,1.35354 2.00019,2.86207 2.28397,23.42285 l 0.3033,21.97614 -2.95767,2.10606 c -1.62673,1.15833 -3.38394,2.10605 -3.90492,2.10605 -0.52947,0 -1.1375,-6.06425 -1.37864,-13.75 z"
       id="path18"
       transform="matrix(0.26458333,0,0,0.26458333,11.443621,37.784298)" />
    <path
       style="fill:#550000;stroke:#000000;stroke-width:7.91055;stroke-linecap:round;stroke-linejoin:bevel;paint-order:stroke fill markers"
       d="m 410.24921,187.29712 c -4.55925,-1.21089 -9.39183,-5.52504 -10.31668,-9.20991 -0.87687,-3.49373 3.06577,-7.84829 9.24121,-10.20671 8.00825,-3.05838 19.90983,0.002 23.94241,6.15642 1.35438,2.06704 1.35058,2.62673 -0.036,5.30804 -1.93048,3.73315 -5.87572,6.59446 -11.08017,8.03598 -4.65941,1.29055 -6.62893,1.2765 -11.75079,-0.0838 z"
       id="path19"
       transform="matrix(0.26458333,0,0,0.26458333,11.443621,37.784298)" />
    <path
       style="fill:#c83737;stroke:#000000;stroke-width:7.91055;stroke-linecap:round;stroke-linejoin:bevel;paint-order:stroke fill markers"
       d="M 285.9214,186.60367 C 281.22003,184.46841 277.5,180.22613 277.5,177 c 0,-5.02643 8.3507,-10.5 16.01921,-10.5 4.65692,0 12.15483,2.79256 15.11657,5.63009 4.09194,3.92032 3.81657,7.43871 -0.88578,11.31766 -6.38011,5.26293 -14.57937,6.44836 -21.8286,3.15592 z"
       id="path20"
       transform="matrix(0.26458333,0,0,0.26458333,11.443621,37.784298)" />
    <path
       style="fill:#c83737;stroke:#000000;stroke-width:7.91055;stroke-linecap:round;stroke-linejoin:bevel;paint-order:stroke fill markers"
       d="m 407.31239,185.46392 c -4.21766,-2.22764 -6.81239,-5.4649 -6.81239,-8.49934 0,-2.49005 4.37826,-6.91352 8.3151,-8.40096 6.73723,-2.5455 17.38793,-0.57014 22.42125,4.15842 2.83493,2.66328 2.85823,4.75235 0.0922,8.26873 -4.83355,6.14487 -16.67522,8.35044 -24.01621,4.47315 z"
       id="path21"
       transform="matrix(0.26458333,0,0,0.26458333,11.443621,37.784298)" />
    <path
       style="fill:#c83737;stroke:#000000;stroke-width:7.91055;stroke-linecap:round;stroke-linejoin:bevel;paint-order:stroke fill markers"
       d="m 557.94911,170.75 c -0.88151,-10.55974 0.0234,-37.48509 1.33886,-39.8356 0.86123,-1.53893 1.12633,-1.5001 3.07722,0.45079 1.9368,1.9368 2.13529,3.22464 2.13998,13.88481 0.003,6.4625 0.28126,16.025 0.6187,21.25 l 0.61351,9.5 -3.02298,1.75 c -1.66264,0.9625 -3.25066,1.75 -3.52892,1.75 -0.27827,0 -0.83464,-3.9375 -1.23637,-8.75 z"
       id="path22"
       transform="matrix(0.26458333,0,0,0.26458333,11.443621,37.784298)" />
    <path
       style="fill:#808000;stroke:#000000;stroke-width:7.91055;stroke-linecap:round;stroke-linejoin:bevel;paint-order:stroke fill markers"
       d="m 145.5,180.94178 -3.5,-1.45516 0.34334,-23.24331 c 0.18884,-12.78382 0.41384,-23.29594 0.5,-23.36026 0.0862,-0.0643 2.29416,-0.34654 4.90666,-0.62716 l 4.75,-0.51022 v 8.71746 c 0,19.07579 -1.31636,42.03676 -2.40704,41.98534 -0.60113,-0.0283 -2.66796,-0.70635 -4.59296,-1.50669 z"
       id="path23"
       transform="matrix(0.26458333,0,0,0.26458333,11.443621,37.784298)" />
    <path
       style="fill:#808000;stroke:#000000;stroke-width:7.91055;stroke-linecap:round;stroke-linejoin:bevel;paint-order:stroke fill markers"
       d="m 461.75,466.35162 c -2.3375,-0.53313 -4.25,-1.377 -4.25,-1.87529 0,-2.58343 5.65728,-3.0679 41.74799,-3.57517 37.32512,-0.52462 37.77926,-0.50682 40.16209,1.57403 4.84657,4.23236 2.64612,4.51321 -36.70904,4.68528 -20.75375,0.0907 -38.54774,-0.26072 -40.95104,-0.80885 z"
       id="path24"
       transform="matrix(0.26458333,0,0,0.26458333,11.443621,37.784298)" />
    <path
       style="fill:#000080;stroke:#000000;stroke-width:7.91055;stroke-linecap:round;stroke-linejoin:bevel;paint-order:stroke fill markers"
       d="M 482,494.75467 C 468.17663,494.47206 465.5,494.0252 465.5,492 c 0,-2.53684 4.79973,-2.83703 24.41813,-1.52721 16.87889,1.12691 27.103,2.76886 22.58187,3.62655 -2.94248,0.55821 -18.69512,0.89667 -30.5,0.65533 z"
       id="path25"
       transform="matrix(0.26458333,0,0,0.26458333,11.443621,37.784298)" />
    <path
       style="fill:#000080;stroke:#000000;stroke-width:0.0309006;stroke-linecap:round;stroke-linejoin:bevel;paint-order:stroke fill markers"
       d="m 552.2882,470.0625 c 0.001,-0.004 0.0607,-0.14415 0.13237,-0.31078 l 0.13021,-0.30298 0.0605,0.0204 c 0.0333,0.0112 0.0773,0.0253 0.0977,0.0312 0.0204,0.006 0.0378,0.0113 0.0385,0.0119 0.002,10e-4 -0.10556,0.13153 -0.31726,0.38619 -0.1526,0.18356 -0.14503,0.17482 -0.14207,0.16406 z"
       id="path26"
       transform="matrix(0.26458333,0,0,0.26458333,11.443621,37.784298)" />
    <path
       style="fill:#000080;stroke:#000000;stroke-width:0.494409;stroke-linecap:round;stroke-linejoin:bevel;paint-order:stroke fill markers"
       d="m 546.06746,475.623 c -0.18317,-0.46633 -0.28427,-0.80434 -0.25,-0.83588 0.17022,-0.15666 5.23166,-3.44633 5.25956,-3.41844 0.077,0.077 -4.51813,5.03806 -4.66579,5.03741 -0.0199,-9e-5 -0.17462,-0.35248 -0.34377,-0.78309 z"
       id="path27"
       transform="matrix(0.26458333,0,0,0.26458333,11.443621,37.784298)" />
    <path
       style="fill:#000080;stroke:#000000;stroke-width:0.0309006;stroke-linecap:round;stroke-linejoin:bevel;paint-order:stroke fill markers"
       d="m 551.27955,471.22307 c -0.005,-0.007 -0.0181,-0.0225 -0.03,-0.0334 l -0.0216,-0.0197 0.13353,-0.0881 c 0.0734,-0.0485 0.13442,-0.0873 0.13551,-0.0862 0.002,0.002 -0.19904,0.23668 -0.20635,0.23987 -0.001,6.4e-4 -0.006,-0.005 -0.0111,-0.0125 z"
       id="path28"
       transform="matrix(0.26458333,0,0,0.26458333,11.443621,37.784298)" />
    <path
       style="fill:#d40000;stroke:#000000;stroke-width:11.1872;stroke-linecap:round;stroke-linejoin:bevel;paint-order:stroke fill markers"
       d="m 145.4885,180.01747 c -2.92164,-1.35462 -2.98444,-1.99925 -2.29233,-23.52998 0.39138,-12.17546 0.78986,-22.24457 0.88551,-22.3758 0.0956,-0.13123 2.02525,-0.70326 4.28801,-1.27118 l 4.11412,-1.03258 -0.97842,23.87127 c -0.53813,13.1292 -1.43619,24.28972 -1.99569,24.80116 -0.5595,0.51144 -2.36904,0.30314 -4.0212,-0.46289 z"
       id="path29"
       transform="matrix(0.26458333,0,0,0.26458333,11.443621,37.784298)" />
    <path
       style="fill:#d40000;stroke:#000000;stroke-width:11.1872;stroke-linecap:round;stroke-linejoin:bevel;paint-order:stroke fill markers"
       d="m 145.23973,178.61517 c -1.84513,-1.84513 -2.16347,-24.851 -0.5125,-37.0373 0.73777,-5.44567 1.6218,-7.1668 4.16145,-8.10196 l 3.22469,-1.1874 -0.80259,15.17303 c -1.21191,22.91127 -2.22707,32.85069 -3.35518,32.85069 -0.56035,0 -1.78249,-0.76368 -2.71587,-1.69706 z"
       id="path30"
       transform="matrix(0.26458333,0,0,0.26458333,11.443621,37.784298)" />
    <path
       style="fill:#d40000;stroke:#000000;stroke-width:5.5936;stroke-linecap:round;stroke-linejoin:bevel;paint-order:stroke fill markers"
       d="m 287.60782,186.79296 c -4.86315,-1.76372 -9.53808,-6.70077 -9.53808,-10.07287 0,-3.42303 5.88164,-7.99151 12.0822,-9.38468 3.60608,-0.81024 9.193,0.17377 14.06334,2.47692 7.10202,3.3585 8.53855,7.93268 3.9065,12.43902 -3.88509,3.77966 -8.11299,5.46196 -13.61181,5.41617 -2.5279,-0.021 -5.63387,-0.4146 -6.90215,-0.87456 z"
       id="path31"
       transform="matrix(0.26458333,0,0,0.26458333,11.443621,37.784298)" />
    <path
       style="fill:#d40000;stroke:#000000;stroke-width:5.5936;stroke-linecap:round;stroke-linejoin:bevel;paint-order:stroke fill markers"
       d="m 409.35028,185.93484 c -3.24087,-1.19805 -7.18588,-4.71882 -8.16088,-7.28326 -1.63053,-4.28862 5.59843,-10.10336 13.15914,-10.58479 7.43173,-0.47321 15.55182,2.71475 17.99305,7.06412 0.96861,1.72569 0.90957,2.05929 -0.82964,4.68741 -3.76321,5.6866 -14.96295,8.77767 -22.16167,6.11652 z"
       id="path32"
       transform="matrix(0.26458333,0,0,0.26458333,11.443621,37.784298)" />
    <path
       style="fill:#a02c2c;stroke:#000000;stroke-width:5.5936;stroke-linecap:round;stroke-linejoin:bevel;paint-order:stroke fill markers"
       d="m 558.71899,174.83215 c -0.59521,-4.95542 -0.4711,-34.47425 0.16639,-39.57363 0.27788,-2.22284 0.7554,-4.29113 1.06115,-4.5962 0.30574,-0.30507 1.27617,0.28213 2.1565,1.30489 1.52123,1.76735 1.62394,2.62644 2.07134,17.32412 0.2589,8.5055 0.66466,17.9113 0.90168,20.90177 l 0.43095,5.43722 -2.38566,1.45443 c -1.31212,0.79993 -2.73909,1.45561 -3.17105,1.45707 -0.43197,0.001 -0.98605,-1.6679 -1.2313,-3.70967 z"
       id="path33"
       transform="matrix(0.26458333,0,0,0.26458333,11.443621,37.784298)" />
    <path
       style="fill:#a02c2c;stroke:#000000;stroke-width:7.91055;stroke-linecap:round;stroke-linejoin:bevel;paint-order:stroke fill markers"
       d="m 409,185.08836 c -4.59626,-2.04283 -7.85581,-6.04809 -7.14777,-8.783 1.43296,-5.53496 12.04546,-9.12172 20.36274,-6.88211 4.53388,1.22085 10.28503,5.44937 10.28503,7.56205 0,0.71913 -1.5627,2.67958 -3.47267,4.35656 -5.55371,4.87622 -13.95108,6.44711 -20.02733,3.7465 z"
       id="path34"
       transform="matrix(0.26458333,0,0,0.26458333,11.443621,37.784298)" />
    <path
       style="fill:#a02c2c;stroke:#000000;stroke-width:7.91055;stroke-linecap:round;stroke-linejoin:bevel;paint-order:stroke fill markers"
       d="m 288.15519,186.09411 c -4.33598,-1.60549 -8.32584,-4.98105 -9.22093,-7.80124 -1.56186,-4.92097 8.32102,-11.4187 16.04362,-10.54825 5.84766,0.65911 13.43216,4.46385 14.77545,7.41204 0.89578,1.96601 0.72649,2.89422 -0.93418,5.12223 -4.41064,5.91745 -13.48845,8.47211 -20.66396,5.81522 z"
       id="path35"
       transform="matrix(0.26458333,0,0,0.26458333,11.443621,37.784298)" />
    <path
       style="fill:#808000;stroke:#000000;stroke-width:2.7968;stroke-linecap:round;stroke-linejoin:bevel;paint-order:stroke fill markers"
       d="m 477.29708,494.43682 c -9.57988,-0.33353 -11.61407,-0.76579 -11.4207,-2.42688 0.0707,-0.6071 0.46701,-1.09996 1.16765,-1.452 3.01967,-1.51727 38.13569,0.57492 45.57759,2.71549 1.88865,0.54325 -1.3399,0.90843 -10.51589,1.18944 -11.03796,0.33804 -14.45374,0.33446 -24.80865,-0.026 z"
       id="path36"
       transform="matrix(0.26458333,0,0,0.26458333,11.443621,37.784298)" />
  </g>
</svg>
